<svg width="120" height="32" xmlns="http://www.w3.org/2000/svg" fill="none">

 <g>
  <title>Layer 1</title>
  <path id="svg_9" fill="white" d="m96.3316,13.2365c0.0711,-0.2161 0.1359,-0.4384 0.2192,-0.6545c0.5002,-1.3028 1.0713,-2.5748 1.7999,-3.76646c0.4816,-0.79033 0.9756,-1.58067 1.5282,-2.3247c0.7621,-1.02497 1.6181,-1.97893 2.6331,-2.76927c0.436,-0.33651 0.886,-0.6545 1.331,-0.98175c0.031,-0.02469 0.056,-0.05557 0.062,-0.13275c-0.059,0.0247 -0.127,0.04014 -0.179,0.0741c-0.815,0.5804 -1.649,1.12993 -2.433,1.75047c-1.3338,1.05276 -2.5749,2.21665 -3.6678,3.51947c-0.6576,0.78108 -1.2565,1.61464 -1.8431,2.45129c-0.2933,0.4137 -0.5001,0.8891 -0.7625,1.3615c-1.7659,-1.6888 -3.8406,-1.99439 -6.19,-1.2812c1.3738,-3.643 3.6893,-6.42462 7.0143,-8.33563c5.3441,-3.06565 12.0741,-2.92054 17.3351,0.90148c4.677,3.39598 6.94,9.14445 6.483,14.08095c-1.871,-1.2441 -3.831,-1.5004 -5.924,-0.5217c0.08,-1.5313 -0.161,-2.9916 -0.485,-4.4426c-0.327,-1.4603 -0.763,-2.88657 -1.343,-4.26966c-0.568,-1.34913 -1.201,-2.65813 -1.973,-3.8992c-0.028,0.01543 -0.058,0.03087 -0.086,0.04631c0.166,0.32107 0.339,0.63597 0.497,0.96322c0.648,1.34913 1.034,2.77853 1.287,4.24806c0.247,1.42937 0.405,2.86807 0.463,4.31597c0.043,1.0775 0.006,2.1518 -0.151,3.22c-0.015,0.1112 -0.028,0.2223 -0.043,0.3643c-1.97,-2.1703 -4.316,-3.6646 -7.16,-4.353c-2.834,-0.6854 -5.6184,-0.5248 -8.3568,0.4816c-0.0216,-0.0154 -0.037,-0.0309 -0.0556,-0.0463z" clip-rule="evenodd" fill-rule="evenodd"/>
  <path id="svg_10" fill="white" d="m103.056,21.1584l-0.006,0c0.5,-2.1858 1.003,-4.3685 1.497,-6.5573c0.018,-0.0865 -0.025,-0.2408 -0.084,-0.2933c-0.382,-0.3273 -0.821,-0.4724 -1.312,-0.4106c-0.132,0.0154 -0.2,0.0771 -0.228,0.2253c-0.071,0.3582 -0.142,0.7194 -0.222,1.0744c-0.46,2.0067 -0.92,4.0134 -1.383,6.0202l0.009,0.003c-0.5,2.1858 -1.004,4.3685 -1.4975,6.5574c-0.0185,0.0864 0.0247,0.2408 0.0834,0.2933c0.3831,0.3272 0.8211,0.4754 1.3121,0.4106c0.133,-0.0155 0.201,-0.0772 0.228,-0.2223c0.071,-0.3581 0.142,-0.7193 0.223,-1.0775c0.454,-2.0098 0.917,-4.0165 1.38,-6.0232z" clip-rule="evenodd" fill-rule="evenodd"/>
  <path id="svg_11" fill="white" d="m112.688,31.6118c0,0 -13.0283,-10.086 -28.9493,-0.7779c0,0 -0.4384,0.3797 0.1976,0.4013c0,0 13.5716,-6.8321 28.5637,0.7626c-0.003,0 0.457,0.0555 0.188,-0.386z" clip-rule="evenodd" fill-rule="evenodd"/>
  <text font-weight="normal" transform="matrix(0.731751 0 0 1.20507 2.64145 10.4347)" stroke="null" xml:space="preserve" text-anchor="start" font-family="'Texturina'" font-size="16" stroke-width="0" id="svg_14" y="10.30331" x="-2.61121" fill="#fcfcfc">HUFLIT HOTEL</text>
 </g>
</svg>